<svg width="206" height="27" viewBox="0 0 206 27" fill="none" xmlns="http://www.w3.org/2000/svg">
<path d="M17.69 1.325V6.785H7.82V11.125H15.1V16.34H7.82V26H0.96V1.325H17.69ZM29.7141 26.245C27.7541 26.245 25.9925 25.8367 24.4291 25.02C22.8891 24.2033 21.6758 23.0367 20.7891 21.52C19.9025 20.0033 19.4591 18.2183 19.4591 16.165C19.4591 14.135 19.9025 12.3617 20.7891 10.845C21.6991 9.32833 22.9241 8.16167 24.4641 7.345C26.0275 6.52833 27.7891 6.12 29.7491 6.12C31.7091 6.12 33.4591 6.52833 34.9991 7.345C36.5625 8.16167 37.7875 9.32833 38.6741 10.845C39.5841 12.3617 40.0391 14.135 40.0391 16.165C40.0391 18.195 39.5841 19.98 38.6741 21.52C37.7875 23.0367 36.5625 24.2033 34.9991 25.02C33.4358 25.8367 31.6741 26.245 29.7141 26.245ZM29.7141 20.295C30.6708 20.295 31.4641 19.945 32.0941 19.245C32.7475 18.5217 33.0741 17.495 33.0741 16.165C33.0741 14.835 32.7475 13.82 32.0941 13.12C31.4641 12.42 30.6825 12.07 29.7491 12.07C28.8158 12.07 28.0341 12.42 27.4041 13.12C26.7741 13.82 26.4591 14.835 26.4591 16.165C26.4591 17.5183 26.7625 18.545 27.3691 19.245C27.9758 19.945 28.7575 20.295 29.7141 20.295ZM51.9651 26.245C50.0051 26.245 48.2435 25.8367 46.6801 25.02C45.1401 24.2033 43.9268 23.0367 43.0401 21.52C42.1535 20.0033 41.7101 18.2183 41.7101 16.165C41.7101 14.135 42.1535 12.3617 43.0401 10.845C43.9501 9.32833 45.1751 8.16167 46.7151 7.345C48.2785 6.52833 50.0401 6.12 52.0001 6.12C53.9601 6.12 55.7101 6.52833 57.2501 7.345C58.8135 8.16167 60.0385 9.32833 60.9251 10.845C61.8351 12.3617 62.2901 14.135 62.2901 16.165C62.2901 18.195 61.8351 19.98 60.9251 21.52C60.0385 23.0367 58.8135 24.2033 57.2501 25.02C55.6868 25.8367 53.9251 26.245 51.9651 26.245ZM51.9651 20.295C52.9218 20.295 53.7151 19.945 54.3451 19.245C54.9985 18.5217 55.3251 17.495 55.3251 16.165C55.3251 14.835 54.9985 13.82 54.3451 13.12C53.7151 12.42 52.9335 12.07 52.0001 12.07C51.0668 12.07 50.2851 12.42 49.6551 13.12C49.0251 13.82 48.7101 14.835 48.7101 16.165C48.7101 17.5183 49.0135 18.545 49.6201 19.245C50.2268 19.945 51.0085 20.295 51.9651 20.295ZM63.9611 16.165C63.9611 14.135 64.3228 12.3617 65.0461 10.845C65.7928 9.32833 66.8078 8.16167 68.0911 7.345C69.3744 6.52833 70.7978 6.12 72.3611 6.12C73.6211 6.12 74.7411 6.38833 75.7211 6.925C76.7244 7.43833 77.5061 8.15 78.0661 9.06V0.0999997H84.9611V26H78.0661V23.27C77.5294 24.18 76.7711 24.9033 75.7911 25.44C74.8111 25.9767 73.6561 26.245 72.3261 26.245C70.7628 26.245 69.3394 25.8367 68.0561 25.02C66.7961 24.2033 65.7928 23.0367 65.0461 21.52C64.3228 19.98 63.9611 18.195 63.9611 16.165ZM78.1011 16.165C78.1011 14.905 77.7511 13.9133 77.0511 13.19C76.3744 12.4667 75.5344 12.105 74.5311 12.105C73.5044 12.105 72.6528 12.4667 71.9761 13.19C71.2994 13.89 70.9611 14.8817 70.9611 16.165C70.9611 17.425 71.2994 18.4283 71.9761 19.175C72.6528 19.8983 73.5044 20.26 74.5311 20.26C75.5344 20.26 76.3744 19.8983 77.0511 19.175C77.7511 18.4517 78.1011 17.4483 78.1011 16.165Z" fill="url(#paint0_linear_35_4)"/>
<path d="M104.62 13.33C106.067 13.6567 107.21 14.38 108.05 15.5C108.913 16.5967 109.345 17.8567 109.345 19.28C109.345 21.38 108.622 23.025 107.175 24.215C105.728 25.405 103.698 26 101.085 26H88.8702V1.325H100.7C103.22 1.325 105.192 1.885 106.615 3.005C108.062 4.125 108.785 5.7 108.785 7.73C108.785 9.17667 108.4 10.39 107.63 11.37C106.883 12.3267 105.88 12.98 104.62 13.33ZM95.7302 11.125H99.1952C100.922 11.125 101.785 10.4133 101.785 8.99C101.785 7.52 100.922 6.785 99.1952 6.785H95.7302V11.125ZM99.7202 20.47C101.447 20.47 102.31 19.7467 102.31 18.3C102.31 17.5533 102.077 16.9817 101.61 16.585C101.167 16.1883 100.525 15.99 99.6852 15.99H95.7302V20.47H99.7202ZM121.487 26.245C119.527 26.245 117.765 25.8367 116.202 25.02C114.662 24.2033 113.448 23.0367 112.562 21.52C111.675 20.0033 111.232 18.2183 111.232 16.165C111.232 14.135 111.675 12.3617 112.562 10.845C113.472 9.32833 114.697 8.16167 116.237 7.345C117.8 6.52833 119.562 6.12 121.522 6.12C123.482 6.12 125.232 6.52833 126.772 7.345C128.335 8.16167 129.56 9.32833 130.447 10.845C131.357 12.3617 131.812 14.135 131.812 16.165C131.812 18.195 131.357 19.98 130.447 21.52C129.56 23.0367 128.335 24.2033 126.772 25.02C125.208 25.8367 123.447 26.245 121.487 26.245ZM121.487 20.295C122.443 20.295 123.237 19.945 123.867 19.245C124.52 18.5217 124.847 17.495 124.847 16.165C124.847 14.835 124.52 13.82 123.867 13.12C123.237 12.42 122.455 12.07 121.522 12.07C120.588 12.07 119.807 12.42 119.177 13.12C118.547 13.82 118.232 14.835 118.232 16.165C118.232 17.5183 118.535 18.545 119.142 19.245C119.748 19.945 120.53 20.295 121.487 20.295ZM133.483 16.165C133.483 14.135 133.844 12.3617 134.568 10.845C135.314 9.32833 136.318 8.16167 137.578 7.345C138.861 6.52833 140.284 6.12 141.848 6.12C143.201 6.12 144.368 6.38833 145.348 6.925C146.328 7.46167 147.086 8.185 147.623 9.095V6.365H154.483V26H147.623V23.27C147.086 24.18 146.316 24.9033 145.313 25.44C144.333 25.9767 143.178 26.245 141.848 26.245C140.284 26.245 138.861 25.8367 137.578 25.02C136.318 24.2033 135.314 23.0367 134.568 21.52C133.844 19.98 133.483 18.195 133.483 16.165ZM147.623 16.165C147.623 14.905 147.273 13.9133 146.573 13.19C145.896 12.4667 145.056 12.105 144.053 12.105C143.026 12.105 142.174 12.4667 141.498 13.19C140.821 13.89 140.483 14.8817 140.483 16.165C140.483 17.425 140.821 18.4283 141.498 19.175C142.174 19.8983 143.026 20.26 144.053 20.26C145.056 20.26 145.896 19.8983 146.573 19.175C147.273 18.4517 147.623 17.4483 147.623 16.165ZM165.252 9.83C166.022 8.71 166.955 7.82333 168.052 7.17C169.148 6.51667 170.327 6.19 171.587 6.19V13.505H169.662C168.168 13.505 167.06 13.7967 166.337 14.38C165.613 14.9633 165.252 15.9783 165.252 17.425V26H158.392V6.365H165.252V9.83ZM172.926 16.165C172.926 14.135 173.288 12.3617 174.011 10.845C174.758 9.32833 175.773 8.16167 177.056 7.345C178.339 6.52833 179.763 6.12 181.326 6.12C182.586 6.12 183.706 6.38833 184.686 6.925C185.689 7.43833 186.471 8.15 187.031 9.06V0.0999997H193.926V26H187.031V23.27C186.494 24.18 185.736 24.9033 184.756 25.44C183.776 25.9767 182.621 26.245 181.291 26.245C179.728 26.245 178.304 25.8367 177.021 25.02C175.761 24.2033 174.758 23.0367 174.011 21.52C173.288 19.98 172.926 18.195 172.926 16.165ZM187.066 16.165C187.066 14.905 186.716 13.9133 186.016 13.19C185.339 12.4667 184.499 12.105 183.496 12.105C182.469 12.105 181.618 12.4667 180.941 13.19C180.264 13.89 179.926 14.8817 179.926 16.165C179.926 17.425 180.264 18.4283 180.941 19.175C181.618 19.8983 182.469 20.26 183.496 20.26C184.499 20.26 185.339 19.8983 186.016 19.175C186.716 18.4517 187.066 17.4483 187.066 16.165ZM201.16 26.28C199.947 26.28 198.967 25.9533 198.22 25.3C197.497 24.6233 197.135 23.7717 197.135 22.745C197.135 21.7183 197.497 20.8667 198.22 20.19C198.967 19.5133 199.947 19.175 201.16 19.175C202.35 19.175 203.307 19.5133 204.03 20.19C204.777 20.8667 205.15 21.7183 205.15 22.745C205.15 23.7483 204.777 24.5883 204.03 25.265C203.307 25.9417 202.35 26.28 201.16 26.28Z" fill="black"/>
<defs>
<linearGradient id="paint0_linear_35_4" x1="1" y1="1.5" x2="85" y2="26" gradientUnits="userSpaceOnUse">
<stop stop-color="#5737EE"/>
<stop offset="0.490385" stop-color="#7C64F1"/>
</linearGradient>
</defs>
</svg>
